Coordinates
version=1
nRows=15
nColumns=46
inDegrees=yes

Units are S.I. units (second, meters, Newtons, ...)
Angles are in degrees.

endheader
time	pelvis_tilt	pelvis_list	pelvis_rotation	pelvis_tx	pelvis_ty	pelvis_tz	bb_angle	bb_tx	bb_ty	bb_tz	hip_flexion_r	hip_adduction_r	hip_rotation_r	knee_angle_r	knee_angle_r_beta	ankle_angle_r	subtalar_angle_r	mtp_angle_r	crank_angle_r	hip_flexion_l	hip_adduction_l	hip_rotation_l	knee_angle_l	knee_angle_l_beta	ankle_angle_l	subtalar_angle_l	mtp_angle_l	crank_angle_l	lumbar_extension	lumbar_bending	lumbar_rotation	arm_flex_r	arm_add_r	arm_rot_r	elbow_flex_r	pro_sup_r	wrist_flex_r	wrist_dev_r	arm_flex_l	arm_add_l	arm_rot_l	elbow_flex_l	pro_sup_l	wrist_flex_l	wrist_dev_l
      0.00000000	    -12.56883732	     -2.32642437	      0.15594129	      0.04909225	      1.14874769	     -0.24077740	      0.00000000	      0.50000000	      0.00000000	      0.25000000	     78.49011795	      0.26973028	      4.01318965	     83.18724191	      1.45189127	      4.99390630	     -9.04128056	      0.00000000	      0.00000000	     48.65709577	     -6.37348031	      1.47797470	     71.40411154	      1.24623685	      4.07359620	     -9.47871562	      0.00000000	      0.00000000	    -60.64195003	      1.25536011	      0.85684149	     89.68620662	     -7.80646686	     32.20598396	     48.61391262	     24.86425581	      0.00000000	      0.00000000	     89.60981270	     -9.68551709	     30.49762474	     48.02958079	     25.55551293	      0.00000000	      0.00000000
      0.00500000	    -12.58684788	     -2.30050936	      0.17068962	      0.04908291	      1.14874957	     -0.24080831	      0.00000000	      0.50000000	      0.00000000	      0.25000000	     78.51620108	      0.23416940	      4.02736193	     83.18748403	      1.45189549	      4.96610720	     -9.02329965	      0.00000000	      0.00000000	     48.67050472	     -6.34602132	      1.45740479	     71.39814718	      1.24613275	      4.08949264	     -9.47341752	      0.00000000	      0.00000000	    -60.61861852	      1.25663562	      0.82215866	     89.68715527	     -7.72824632	     31.96494614	     48.05530167	     27.29666638	      0.00000000	      0.00000000	     89.61059355	     -9.62736542	     30.21434995	     47.46893438	     27.87702466	      0.00000000	      0.00000000
      0.01000000	    -12.42836787	     -2.40773411	      0.20066371	      0.04905618	      1.14910186	     -0.24088007	      0.00000000	      0.50000000	      0.00000000	      0.25000000	     78.30439796	      0.23133791	      3.87976376	     83.13230080	      1.45093236	      4.93106440	     -9.17490728	      0.00000000	      0.00000000	     48.50591681	     -6.41718552	      1.54340994	     71.38734989	      1.24594430	      4.14619425	     -9.52992157	      0.00000000	      0.00000000	    -60.88101292	      1.35608064	      0.89959407	     89.68709311	     -7.67876555	     31.52099853	     48.19942330	     28.35848863	      0.00000000	      0.00000000	     89.60248799	     -9.63395329	     29.68591481	     47.74958176	     28.93428807	      0.00000000	      0.00000000
      0.01500000	    -12.74379246	     -2.41549716	      0.14948369	      0.04878769	      1.14820082	     -0.24051562	      0.00000000	      0.50000000	      0.00000000	      0.25000000	     78.69337530	      0.36642511	      4.00460025	     83.15252631	      1.45128537	      4.99947548	     -9.03021826	      0.00000000	      0.00000000	     48.92670337	     -6.35250600	      1.76617418	     71.55293998	      1.24883439	      4.27167700	     -9.42499427	      0.00000000	      0.00000000	    -60.72992969	      1.42630739	      0.90429193	     89.66636294	     -7.66636208	     30.71072509	     49.12346664	     29.24123771	      0.00000000	      0.00000000	     89.56684457	     -9.84590679	     28.86840067	     48.59861495	     29.78436125	      0.00000000	      0.00000000
      0.02000000	    -12.37727859	     -2.51436099	     -0.03670535	      0.04922822	      1.14843618	     -0.24004087	      0.00000000	      0.50000000	      0.00000000	      0.25000000	     78.28082373	      0.58322045	      3.84920770	     83.15253926	      1.45128559	      5.03870090	     -9.01169168	      0.00000000	      0.00000000	     48.50422513	     -6.45992639	      1.87601915	     71.39574484	      1.24609082	      4.58225264	     -6.66490334	      0.00000000	      0.00000000	    -60.90134816	      1.42445380	      0.80842781	     89.69255536	     -7.20687534	     31.64537731	     48.14661760	     29.04791248	      0.00000000	      0.00000000	     89.59093840	    -10.28058294	     29.86320152	     47.55912138	     29.66993926	      0.00000000	      0.00000000
      0.02500000	    -12.37632819	     -2.71058243	     -0.20709831	      0.04982494	      1.14787995	     -0.23835841	      0.00000000	      0.50000000	      0.00000000	      0.25000000	     78.43245250	      0.81607265	      3.60179721	     83.31978532	      1.45420459	      4.87693833	     -8.77695036	      0.00000000	      0.00000000	     48.43309978	     -6.63031249	      1.87063286	     71.33063518	      1.24495444	      3.82015979	     -6.45328747	      0.00000000	      0.00000000	    -60.83752476	      1.30771277	      1.10969580	     89.68416113	     -7.15390325	     31.71313672	     48.03045851	     29.01564929	      0.00000000	      0.00000000	     89.58478790	    -10.40052017	     29.99559094	     47.56003581	     29.68383775	      0.00000000	      0.00000000
      0.03000000	    -12.61123233	     -2.25447335	      0.16274953	      0.04901646	      1.14868095	     -0.24099428	      0.00000000	      0.50000000	      0.00000000	      0.25000000	     78.56627750	      0.14841999	      4.01366666	     83.23036380	      1.45264389	      5.02749495	     -8.98608498	      0.00000000	      0.00000000	     48.68573229	     -6.30356422	      1.37461289	     71.38567245	      1.24591502	      4.08170422	     -9.60237204	      0.00000000	      0.00000000	    -60.61220718	      1.24806778	      0.72591519	     89.68595259	     -7.65710786	     31.76851945	     47.81188850	     28.91727374	      0.00000000	      0.00000000	     89.60520285	     -9.93414874	     30.48506415	     47.44376637	     29.70299517	      0.00000000	      0.00000000
      0.03500000	    -12.47728032	     -2.31280457	      0.18470997	      0.04905566	      1.14898805	     -0.24104597	      0.00000000	      0.50000000	      0.00000000	      0.25000000	     78.39642068	      0.13288487	      3.92889497	     83.22802983	      1.45260315	      5.11764673	     -9.02515089	      0.00000000	      0.00000000	     48.53293203	     -6.36935900	      1.35990360	     71.36264878	      1.24551318	      4.17777395	     -9.68952034	      0.00000000	      0.00000000	    -60.84371280	      1.33553782	      0.77371073	     89.68383255	     -7.60896075	     31.33996149	     48.07646713	     29.69799532	      0.00000000	      0.00000000	     89.59413177	     -9.94745610	     29.85224021	     47.66284691	     30.42711825	      0.00000000	      0.00000000
      0.04000000	    -12.57871606	     -2.20811918	      0.17956690	      0.04902294	      1.14882217	     -0.24104006	      0.00000000	      0.50000000	      0.00000000	      0.25000000	     78.53942741	      0.09064060	      4.05186671	     83.25509270	      1.45307549	      5.11355688	     -8.84904790	      0.00000000	      0.00000000	     48.63328972	     -6.26792232	      1.32407498	     71.34138697	      1.24514210	      4.03145312	     -9.61097049	      0.00000000	      0.00000000	    -60.63904570	      1.25177137	      0.68236233	     89.68859166	     -7.63795021	     31.74102715	     47.56366270	     30.10220002	      0.00000000	      0.00000000	     89.61144288	     -9.89676545	     30.30198292	     47.02245577	     30.85550957	      0.00000000	      0.00000000
      0.04500000	    -12.57411212	     -2.20859693	      0.18659879	      0.04903480	      1.14883703	     -0.24104856	      0.00000000	      0.50000000	      0.00000000	      0.25000000	     78.53837202	      0.06642794	      4.02821322	     83.28591533	      1.45361344	      5.12481664	     -8.76480406	      0.00000000	      0.00000000	     48.62665309	     -6.27039074	      1.31828984	     71.32990417	      1.24494168	      4.01180469	     -9.60078039	      0.00000000	      0.00000000	    -60.64024861	      1.25848260	      0.70473799	     89.68893792	     -7.63664101	     31.59827352	     47.38405702	     31.02047545	      0.00000000	      0.00000000	     89.61155691	     -9.81954797	     30.12765427	     46.77663152	     31.71607473	      0.00000000	      0.00000000
      0.05000000	    -12.49038129	     -2.26060837	      0.19896892	      0.04900540	      1.14903633	     -0.24103660	      0.00000000	      0.50000000	      0.00000000	      0.25000000	     78.43486966	      0.07860982	      3.96238398	     83.27693895	      1.45345678	      5.19941895	     -8.93974349	      0.00000000	      0.00000000	     48.54043558	     -6.31638195	      1.35364134	     71.30592028	      1.24452308	      3.97872529	     -9.58426571	      0.00000000	      0.00000000	    -60.77346009	      1.29881895	      0.74351334	     89.68949138	     -7.62801305	     31.42217809	     47.44545223	     31.65656127	      0.00000000	      0.00000000	     89.61083240	     -9.84767026	     29.91793254	     46.89617265	     32.36471382	      0.00000000	      0.00000000
      0.05500000	    -12.58137143	     -2.23759505	      0.17942252	      0.04903466	      1.14887031	     -0.24098945	      0.00000000	      0.50000000	      0.00000000	      0.25000000	     78.54491205	      0.08124539	      3.98893239	     83.30522884	      1.45395053	      5.24984977	     -8.83861929	      0.00000000	      0.00000000	     48.63849324	     -6.31934829	      1.31891068	     71.30448604	      1.24449805	      3.95023728	     -9.56196933	      0.00000000	      0.00000000	    -60.63727521	      1.26495870	      0.73772827	     89.68807810	     -7.66916888	     31.56010785	     47.20904961	     32.20201510	      0.00000000	      0.00000000	     89.61376761	     -9.84456720	     30.09381539	     46.56527246	     32.91813950	      0.00000000	      0.00000000
      0.06000000	    -12.58798416	     -2.23098191	      0.17992512	      0.04902014	      1.14889224	     -0.24100334	      0.00000000	      0.50000000	      0.00000000	      0.25000000	     78.55219489	      0.07103913	      3.99573272	     83.29304563	      1.45373789	      5.29439259	     -8.80058280	      0.00000000	      0.00000000	     48.63920871	     -6.30835784	      1.32617703	     71.28254530	      1.24411511	      3.94108637	     -9.54940469	      0.00000000	      0.00000000	    -60.63382763	      1.25827522	      0.72153210	     89.68865389	     -7.63411183	     31.47589425	     47.11841032	     32.53329338	      0.00000000	      0.00000000	     89.61476516	     -9.82516943	     30.00691574	     46.49877268	     33.26596262	      0.00000000	      0.00000000
      0.06500000	    -12.58020046	     -2.21573194	      0.20378032	      0.04900337	      1.14892202	     -0.24105358	      0.00000000	      0.50000000	      0.00000000	      0.25000000	     78.54617110	      0.02753114	      3.99653672	     83.29845837	      1.45383236	      5.31172693	     -8.74781516	      0.00000000	      0.00000000	     48.62779527	     -6.27638275	      1.33076117	     71.25036103	      1.24355339	      3.91012260	     -9.51459824	      0.00000000	      0.00000000	    -60.66062515	      1.27528840	      0.70299610	     89.68956523	     -7.82456539	     31.82249184	     47.34146783	     32.34189558	      0.00000000	      0.00000000	     89.61426486	    -10.05865293	     30.41455274	     46.72657598	     33.35521884	      0.00000000	      0.00000000
      0.07000000	    -12.43890479	     -2.33970006	      0.20139314	      0.04903450	      1.14924275	     -0.24102215	      0.00000000	      0.50000000	      0.00000000	      0.25000000	     78.35993815	      0.07574944	      3.84799049	     83.28928879	      1.45367232	      5.31112112	     -8.83419607	      0.00000000	      0.00000000	     48.47545957	     -6.39803745	      1.39639598	     71.22908643	      1.24318208	      3.90461149	     -9.56390727	      0.00000000	      0.00000000	    -60.89079135	      1.36270837	      0.79787894	     89.69033574	     -7.65735744	     31.28670189	     47.49598371	     32.87770242	      0.00000000	      0.00000000	     89.60197578	     -9.96303240	     29.73156535	     47.00249859	     33.85720850	      0.00000000	      0.00000000
